# xmcd
#
# Track frame offsets:
#	150
#	13033
#	32157
#	43879
#	67652
#	89171
#	107553
#	127798
#	146858
#	161422
#	182680
#	195179
#	212105
#	227107
#	242505
#	259857
#	276510
#	286734
#	291090
#	297570
#	307338
#	314637
#	330636
#	335161
#
# Disc length: 4577 seconds
#
# Revision: 11
# Processed by: cddbd v1.5.2PL0 Copyright (c) Steve Scherf et al.
# Submitted via: EasyCDDAExtractor 15.3.0.1
#
DISCID=7911df18
DTITLE=Selena - Momentos Intimos
DYEAR=2004
DGENRE=Latin
TTITLE0=Amor Prohibido
TTITLE1=Missing My Baby
TTITLE2=Fotos Y Recuerdos
TTITLE3=Dreaming Of You
TTITLE4=Buenos Amigos (Duet With Alvaro Torres)
TTITLE5=I'm Getting Used To You
TTITLE6=Donde Quiera Que Estes (Duet With Barrio Boyzz)
TTITLE7=Only Love
TTITLE8=Tu Solo Tu
TTITLE9=I Could Fall In Love
TTITLE10=Si Una Vez
TTITLE11=Where Did The Feeling Go
TTITLE12=No Me Queda Mas
TTITLE13=Como Te Quiero Yo A Ti (Re-Recorded)
TTITLE14=No Llores Mas Corazon (Re-Recorded)
TTITLE15=Puede Ser (Unreleased) (Duet With Nando Güero Dominguez)
TTITLE16=Amor Prohibido (Spoken Liner Notes By The Band And Family)
TTITLE17=Missing My Baby (Spoken Liner Notes By The Band And Family)
TTITLE18=Fotos Y Recuerdos (Spoken Liner Notes By The Band And Family)
TTITLE19=Dreaming Of You (Spoken Liner Notes By The Band And Family)
TTITLE20=Donde Quiera Que Estes (Spoken Liner Notes By The Band And Family)
TTITLE21=I Could Fall In Love (Spoken Liner Notes By The Band And Family)
TTITLE22=Si Una Vez (Spoken Liner Notes By The Band And Family)
TTITLE23=No Me Queda Mas (Spoken Liner Notes By The Band And Family)
EXTD=
EXTT0=
EXTT1=
EXTT2=
EXTT3=
EXTT4=
EXTT5=
EXTT6=
EXTT7=
EXTT8=
EXTT9=
EXTT10=
EXTT11=
EXTT12=
EXTT13=
EXTT14=
EXTT15=
EXTT16=Spoken Liner Notes by The Band and Family
EXTT17=Spoken Liner Notes by The Band and Family
EXTT18=Spoken Liner Notes by The Band and Family
EXTT19=Spoken Liner Notes by The Band and Family
EXTT20=Spoken Liner Notes by The Band and Family
EXTT21=Spoken Liner Notes by The Band and Family
EXTT22=Spoken Liner Notes by The Band and Family
EXTT23=Spoken Liner Notes by The Band and Family
PLAYORDER=
